HIERARCHY
ROOT hip
{
	OFFSET 0.000000 0.000000 0.000000 
	CHANNELS 6 Xposition Yposition Zposition Xrotation Zrotation Yrotation
	JOINT abdomen
	{
		OFFSET 0.000000 3.402643 0.000000 
		CHANNELS 3 Xrotation Zrotation Yrotation
		JOINT chest
		{
			OFFSET 0.000000 8.438565 -0.680529 
			CHANNELS 3 Xrotation Zrotation Yrotation
			JOINT neck
			{
				OFFSET 0.000000 10.207942 -0.272212 
				CHANNELS 3 Xrotation Zrotation Yrotation
				JOINT head
				{
					OFFSET 0.000000 3.130431 0.000000 
					CHANNELS 3 Xrotation Zrotation Yrotation
					End Site
					{
						OFFSET 0.000000 3.130435 0.000000 
					}
				}
			}
			JOINT lCollar
			{
				OFFSET 3.470700 6.669187 -0.816635 
				CHANNELS 3 Yrotation Zrotation Xrotation
				JOINT lShldr
				{
					OFFSET 3.198488 0.000000 0.000000 
					CHANNELS 3 Zrotation Yrotation Xrotation
					JOINT lForeArm
					{
						OFFSET 10.139888 0.000000 0.000000 
						CHANNELS 3 Yrotation Zrotation Xrotation
						JOINT lHand
						{
							OFFSET 8.370511 0.000000 0.000000 
							CHANNELS 3 Zrotation Yrotation Xrotation
							End Site
							{
								OFFSET 4.083176 0.000000 0.000000 
							}
						}
					}
				}
			}
			JOINT rCollar
			{
				OFFSET -3.470700 6.669187 -0.816635 
				CHANNELS 3 Yrotation Zrotation Xrotation
				JOINT rShldr
				{
					OFFSET -3.198488 0.000000 0.000000 
					CHANNELS 3 Zrotation Yrotation Xrotation
					JOINT rForeArm
					{
						OFFSET -10.139888 0.000000 0.000000 
						CHANNELS 3 Yrotation Zrotation Xrotation
						JOINT rHand
						{
							OFFSET -8.370511 0.000000 0.000000 
							CHANNELS 3 Zrotation Yrotation Xrotation
							End Site
							{
								OFFSET -4.083176 0.000000 0.000000 
							}
						}
					}
				}
			}
		}
	}
	JOINT lThigh
	{
		OFFSET 5.308129 -1.633274 1.361059 
		CHANNELS 3 Xrotation Zrotation Yrotation
		JOINT lShin
		{
			OFFSET -2.041588 -20.007561 0.000000 
			CHANNELS 3 Xrotation Zrotation Yrotation
			JOINT lFoot
			{
				OFFSET 0.000000 -19.190928 -1.224953 
				CHANNELS 3 Xrotation Yrotation Zrotation
				End Site
				{
					OFFSET 0.000000 -2.449906 4.627600 
				}
			}
		}
	}
	JOINT rThigh
	{
		OFFSET -5.308129 -1.633274 1.361059 
		CHANNELS 3 Xrotation Zrotation Yrotation
		JOINT rShin
		{
			OFFSET 2.041588 -20.007561 0.000000 
			CHANNELS 3 Xrotation Zrotation Yrotation
			JOINT rFoot
			{
				OFFSET 0.000000 -19.190928 -1.224953 
				CHANNELS 3 Xrotation Yrotation Zrotation
				End Site
				{
					OFFSET 0.000000 -2.449906 4.627600 
				}
			}
		}
	}
}
MOTION
Frames: 6
Frame Time: 0.016667
26.658648 32.694244 -2.733830 0.107565 2.958980 148.854004 -21.311701 3.620240 -2.333010 10.008200 7.009640 -1.291860 -1.843613 -18.286222 -16.360161 6.188480 10.183700 -10.494700 2.000000 -2.000000 0.000000 -77.281998 16.089100 -137.166000 111.210999 -0.161849 0.146362 0.223314 -0.159399 126.555000 -2.000000 2.000000 0.000000 57.828701 26.066000 144.382004 -93.574600 0.206934 0.116947 -0.076316 -0.071191 -106.619003 -31.102028 21.295536 16.434929 83.157181 -0.683211 4.602196 -39.637611 15.248732 13.695938 -47.436028 -26.442734 -13.818335 63.646484 -0.883196 -4.127658 -21.602980 5.308914 -0.293809 
26.829962 32.535175 -2.752962 -0.273786 2.890590 148.912003 -21.318300 3.528770 -2.465210 10.050500 6.876100 -1.349060 -1.989304 -18.194574 -16.521769 6.119620 10.252600 -10.475000 2.000000 -2.000000 0.000000 -77.223000 16.128599 -136.901993 111.036003 -0.162269 0.146524 0.219914 -0.159751 127.775002 -2.000000 2.000000 0.000000 58.218498 26.624399 143.455002 -93.291397 0.207560 0.116985 -0.075077 -0.069032 -107.508003 -31.590868 22.116331 16.588169 83.843567 -0.719703 4.613739 -40.101753 14.771853 13.439712 -47.944019 -26.789215 -14.538968 64.421890 -0.810748 -4.157398 -22.531794 5.236694 -0.223986 
26.981844 32.414410 -2.773531 -0.410689 2.919850 148.865997 -21.257700 3.483540 -2.558290 10.098800 6.915590 -1.408840 -1.847645 -18.132313 -16.667679 6.129630 10.262300 -10.472900 2.000000 -2.000000 0.000000 -76.948799 16.207600 -136.423996 110.683998 -0.163108 0.146844 0.217571 -0.159951 128.615005 -2.000000 2.000000 0.000000 58.266998 26.937700 143.046005 -92.607803 0.209073 0.117063 -0.074676 -0.068317 -107.801003 -31.634878 22.843554 16.885256 84.245667 -0.750764 4.612013 -40.406837 14.364318 13.237618 -48.090580 -27.098227 -15.240203 65.020805 -0.750487 -4.181013 -23.517244 5.164063 -0.140758 
27.122042 32.322968 -2.795796 -0.449761 2.812410 148.893997 -21.219601 3.502870 -2.478970 10.116800 6.992860 -1.372890 -1.604216 -18.297537 -16.896877 6.209460 10.310400 -10.574300 2.000000 -2.000000 0.000000 -76.508003 16.091700 -135.671997 110.333000 -0.163950 0.147159 0.219832 -0.159758 127.805000 -2.000000 2.000000 0.000000 57.641300 26.655001 142.811005 -91.767998 0.210932 0.117134 -0.073990 -0.067071 -108.308998 -31.627737 23.282616 17.217194 84.529953 -0.772496 4.608841 -40.609913 14.027946 13.049464 -48.276085 -27.516470 -15.679251 65.619186 -0.709724 -4.206176 -24.401407 4.970864 -0.130824 
27.234268 32.248936 -2.793527 -0.596377 2.724460 149.044006 -21.230101 3.565060 -2.619020 10.040100 7.327380 -1.472350 -1.442199 -18.401272 -16.858072 6.268380 10.241500 -10.625100 2.000000 -2.000000 0.000000 -76.351898 16.130600 -135.759003 110.167000 -0.164348 0.147306 0.223694 -0.159355 126.417999 -2.000000 2.000000 0.000000 57.124500 26.556299 143.328003 -91.045403 0.212533 0.117173 -0.073443 -0.066061 -108.719002 -31.890659 23.582460 17.254662 84.747147 -0.807194 4.627076 -40.580341 13.945449 12.958957 -48.533165 -27.759983 -15.959092 66.226479 -0.673249 -4.214085 -24.942041 4.659346 -0.194097 
27.351099 32.186810 -2.797515 -0.606125 2.665870 149.337006 -21.182600 3.605140 -2.568430 9.997480 7.460860 -1.454590 -1.799744 -18.540646 -16.975452 6.160000 10.330300 -10.699600 2.000000 -2.000000 0.000000 -75.990601 16.198999 -135.720993 110.322998 -0.163974 0.147168 0.224970 -0.159200 125.959000 -2.000000 2.000000 0.000000 56.313400 25.989700 143.414993 -90.693802 0.213312 0.117185 -0.073006 -0.065240 -109.051003 -32.114052 23.651987 17.145380 84.991951 -0.845079 4.603417 -40.511112 14.022889 12.999709 -48.565205 -28.064901 -16.171497 66.649208 -0.627869 -4.243232 -25.394871 4.302428 -0.307073 
